/* XPM */
static char *result[] = {
/* columns rows colors chars-per-pixel */
"30 30 79 1 ",
"  c #766316",
". c #7F6B17",
"X c #746319",
"o c #7B661A",
"O c #7E6919",
"+ c #806B17",
"@ c #846E1A",
"# c #86701A",
"$ c #8B741C",
"% c #8F781E",
"& c #927A1E",
"* c #8C7521",
"= c #947C21",
"- c #9D841F",
"; c #A0861F",
": c #9B8222",
"> c #A38926",
", c #A98E22",
"< c #A68C28",
"1 c #AA8F29",
"2 c #AD9123",
"3 c #AD9129",
"4 c #B29622",
"5 c #BB9C24",
"6 c #B1952A",
"7 c #B6992C",
"8 c #B99B2B",
"9 c #BFA025",
"0 c #BEA02C",
"q c #C3A325",
"w c #C8A724",
"e c #CDAC27",
"r c #C4A42B",
"t c #C8A728",
"y c #CCAB2A",
"u c #D0AE2C",
"i c #D5B22D",
"p c #D9B62E",
"a c #DEBA2F",
"s c #D9B631",
"d c #DDBA32",
"f c #E3BE2F",
"g c #E2BD33",
"h c #E7CB2F",
"j c #EACB2F",
"k c #E5C132",
"l c #EAC533",
"z c #EBCA32",
"x c #E5C139",
"c c #EBC53B",
"v c #F3CC33",
"b c #F4CC3B",
"n c #FCD434",
"m c #F2D833",
"M c #FEDC36",
"N c #F4D43B",
"B c #FBD43C",
"V c #FEDB3C",
"C c #FBE036",
"Z c #FFE23B",
"A c #D8BC44",
"S c #D1BA51",
"D c #DBC155",
"F c #EDC843",
"G c #F2CD45",
"H c #F4CE4B",
"J c #FBD445",
"K c #FFDC45",
"L c #FAD44D",
"P c #FFDC4C",
"I c #F7D150",
"U c #FBD553",
"Y c #FFDD53",
"T c #FFDC5C",
"R c #FFE145",
"E c #FFE04A",
"W c #FFE054",
"Q c #FFE05D",
"! c None",
/* pixels */
"!!!!!!!!!!!!!!!!!!!!!!!!!!!!!!",
"!!!!!!!!!!!!!!!!!!!!!!!!!!!!!!",
"!!!!!!!!!!!!!!!!!!!!!!!!!!!!!!",
"!!!!!!!!!!!!!!!!!!!!!!!!!!!!!!",
"!!!!!!!!!!!!!zhz!!!!!!!!!!!!!!",
"!!!!!!!!!!nnMMCCCZCC!!!!!!!!!!",
"!!!!!!!!lnnnnMMVRZZZZm!!!!!!!!",
"!!!!!!dlvvvnBBVKKRERZZZ!!!!!!!",
"!!!!!affllvvbBBJPYYWERZM!!!!!!",
"!!!!iffgfllzvbJJUTQQWPKMM!!!!!",
"!!!!yissafkkkbbGHUTTTYPVMM!!!!",
"!!!8ryuuipafgkccHHIIULJBBKN!!!",
"!!r770ryuissggggFcFHGGbbNPKM!!",
"!7766680rtuuipdggggxccllbGGNA!",
"!13111168rtyyiiipsadgdgfgggkD!",
"!><<<<,,1685rrtyuuuiiippieeeS!",
"!=:<:>>>><,4555qqtwteteew4;,!!",
"!!=::>:::::<,24555959qqq5-&$!!",
"!!!=:==:::=-::,,424444442&!!!!",
"!!!!*===&:&&=&&---;;;;;;:*!!!!",
"!!!!***=%&%&%%%&%%&&%$$%*!!!!!",
"!!!!!@**$$$$$$$$$$$$#$##!!!!!!",
"!!!!!!!@@@##+##@+##@@@O!!!!!!!",
"!!!!!!!!..+++++.++OOOo!!!!!!!!",
"!!!!!!!!!!XoX     oX!!!!!!!!!!",
"!!!!!!!!!!!!!!!!!!!!!!!!!!!!!!",
"!!!!!!!!!!!!!!!!!!!!!!!!!!!!!!",
"!!!!!!!!!!!!!!!!!!!!!!!!!!!!!!",
"!!!!!!!!!!!!!!!!!!!!!!!!!!!!!!",
"!!!!!!!!!!!!!!!!!!!!!!!!!!!!!!"
};
