/* XPM */
static char *result[] = {
/* columns rows colors chars-per-pixel */
"30 30 208 2 ",
"   c #DF3801",
".  c #DA3A06",
"X  c #DC3805",
"o  c #DE3805",
"O  c #DE3905",
"+  c #DD3F06",
"@  c #D53208",
"#  c #D43A0E",
"$  c #D63E0F",
"%  c #DD3D08",
"&  c #CC3B17",
"*  c #CD3D1A",
"=  c #D23E11",
"-  c #D43F13",
";  c #E33F01",
":  c #E23F04",
">  c #D7400E",
",  c #DF4209",
"<  c #DE460A",
"1  c #D9420D",
"2  c #DD490B",
"3  c #DF4F0A",
"4  c #CE401A",
"5  c #D44114",
"6  c #D0451A",
"7  c #D2481E",
"8  c #D44A1E",
"9  c #DB5312",
"0  c #E54403",
"q  c #E74602",
"w  c #E34604",
"e  c #E54406",
"r  c #E54507",
"t  c #E44706",
"y  c #EC4305",
"u  c #E74803",
"i  c #E24A04",
"p  c #E14807",
"a  c #E14A06",
"s  c #E54B04",
"d  c #E24C07",
"f  c #E74D06",
"g  c #E84900",
"h  c #E94901",
"j  c #E94F00",
"k  c #ED4C01",
"l  c #EE4D03",
"z  c #E94806",
"x  c #E94C05",
"c  c #EA4E05",
"v  c #E0420A",
"b  c #E1430B",
"n  c #E24608",
"m  c #E9470C",
"M  c #E24B08",
"N  c #E44908",
"B  c #E44A09",
"V  c #E74A09",
"C  c #E04F09",
"Z  c #E44B0C",
"A  c #F04A00",
"S  c #E55001",
"D  c #E95001",
"F  c #EA5101",
"G  c #EE5001",
"H  c #EB5400",
"J  c #EB5703",
"K  c #ED5400",
"L  c #E75807",
"P  c #E95A02",
"I  c #ED5800",
"U  c #EC5900",
"Y  c #EF5800",
"T  c #EC5A02",
"R  c #EF5B03",
"E  c #EE5D00",
"W  c #EA5B05",
"Q  c #EC5B04",
"!  c #E35308",
"~  c #E3570B",
"^  c #F15101",
"/  c #F15400",
"(  c #F25500",
")  c #F15C00",
"_  c #F25F00",
"`  c #F45E00",
"'  c #F85A00",
"]  c #E44C10",
"[  c #E05510",
"{  c #E25417",
"}  c #ED6000",
"|  c #EE6001",
" . c #ED6203",
".. c #F76200",
"X. c #F16701",
"o. c #F66501",
"O. c #F86000",
"+. c #F86200",
"@. c #F86300",
"#. c #F16800",
"$. c #F26B01",
"%. c #F66900",
"&. c #F76900",
"*. c #F66A00",
"=. c #F26D00",
"-. c #F06E00",
";. c #F16F02",
":. c #F76D00",
">. c #F56E00",
",. c #F56F00",
"<. c #F66F00",
"1. c #F86900",
"2. c #F86A00",
"3. c #F86B00",
"4. c #F86C00",
"5. c #F86E00",
"6. c #F86F00",
"7. c #F07200",
"8. c #F77200",
"9. c #F77300",
"0. c #F37500",
"q. c #F27401",
"w. c #F57400",
"e. c #F57700",
"r. c #F67600",
"t. c #F87200",
"y. c #F87300",
"u. c #F87400",
"i. c #F87600",
"p. c #F87700",
"a. c #F47900",
"s. c #F57A00",
"d. c #F57B00",
"f. c #F67A00",
"g. c #F67B00",
"h. c #F87900",
"j. c #F87B00",
"k. c #F87C00",
"l. c #F87D00",
"z. c #F87E00",
"x. c #F87F00",
"c. c #CD4A20",
"v. c #C85230",
"b. c #C85231",
"n. c #BA644A",
"m. c #F58100",
"M. c #F68000",
"N. c #F68100",
"B. c #F68200",
"V. c #F58500",
"C. c #F78500",
"Z. c #F68700",
"A. c #F88000",
"S. c #F88100",
"D. c #F88200",
"F. c #F88500",
"G. c #F88600",
"H. c #F88700",
"J. c #F78800",
"K. c #F78900",
"L. c #F78C00",
"P. c #F88B00",
"I. c #F88C00",
"U. c #F88D00",
"Y. c #F88E00",
"T. c #F88F00",
"R. c #F79500",
"E. c #F89000",
"W. c #F89100",
"Q. c #F89300",
"!. c #F89400",
"~. c #F89500",
"^. c #F89600",
"/. c #F89700",
"(. c #F89800",
"). c #F89900",
"_. c #F89A00",
"`. c #F89B00",
"'. c #F89C00",
"]. c #F89D00",
"[. c #F89F00",
"{. c #F8A000",
"}. c #F8A100",
"|. c #F8A200",
" X c #F8A300",
".X c #F8A500",
"XX c #F8A800",
"oX c #F8A900",
"OX c #F8AA00",
"+X c #F8AB00",
"@X c #F8AC00",
"#X c #F8AE00",
"$X c #F8AF00",
"%X c #F8B000",
"&X c #F8B100",
"*X c #F8B400",
"=X c #F8B500",
"-X c #F8B600",
";X c #F8B700",
":X c #F8B800",
">X c #F8BA00",
",X c #F8BC00",
"<X c #F8BD00",
"1X c #F8BE00",
"2X c #F8BF00",
"3X c #F8C000",
"4X c #F8C100",
"5X c None",
/* pixels */
"5X5X5X5X5X5X5X5X5X5X5X5X5X5X5X5X5X5X5X5X5X5X5X5X5X5X5X5X5X5X",
"5X5X5X5X5X5X5X5X5X5X5X5X5X5X5X5X5X5X5X5X5X5X5X5X5X5X5X5X5X5X",
"5X5X5X5X5X5X5X5X5X5X5X5X5X5X5X5X5X5X5X5X5X5X5X5X5X5X5X5X5X5X",
"5X5X5X5X5X5X5X5X5X5X5X5X5X5X5X5X5X5X5X5X5X5X5X5X5X5X5X5X5X5X",
"5X5X5X5X5X5X5X5X5X5X5X5X5X5X& @ 5X5X5X5X5X5X5X5X5X5X5X5X5X5X",
"5X5X5X5X5X5X5X5X5X5X5X5X5X5X* 5X5X5X5X5X5X5X5X5X5X5X5X5X5X5X",
"5X5X5X5X5X5X5X5X5X5X5X5X# 5 5X5X5X5X5X5X5X5X5X5X5X5X5X5X5X5X",
"5X5X5X5X5X5X5X5X5X5X5X5X  G ~ ! x 5X5X5X5X5X5X5X5X5X5X5X5X5X",
"5X5X5X5X5X5X5X5X5X5X5X5XX I g.M.e.J : 5X5X5X5X5X5X5X5X5X5X5X",
"5X5X5X5X5X5X5X5X5X5X5X5X5XM P 0.W.l.A 5X5X5X5X5X5X5X5X5X5X5X",
"5X5X5X5X5X5X5X5X5X5X5X5X5X5X= S N.>.l 5X5X5X5X5X5X5X5X5X5X5X",
"5X5X5X5X5X5X5X5X5X5X5X5X5X< w #.<.f 5X5X5X5X5X5X5X5X5X5X5X5X",
"5X5X5X5X5X5X5X5X5X5X5X5X[ R w.P.G.;.W 5X5X5X5X5X5X5X5X5X5X5X",
"5X5X5X5X5X5X5X5X5X5X5XQ q.J.!./.(.^.K.$.a 5X5X5X5X5X5X5X5X5X",
"5X5X5X5X5X5X5X5X5X5X0 ,.!.).(.(.(.`. XR.} p + % 5X5X5X5X5X5X",
"5X5X5X5X5X5X5X5X5X5X. j s.Q./.(._.#X<X=X_.B.-.D , 5X5X5X5X5X",
"5X5X5X5X5X5X5X5X5Xi F g ( 2.t.S.P.{.=X<X-X[./.C.Y b 5X5X5X5X",
"5X5X5X5X5X5X5X9  .m.H.&...p.j.3.+.1.l._.@X.X)./.a.; 5X5X5X5X",
"5X5X5X5X5X5X5XL Z./.F.h._.&X:XoXE.y.O.4.I.).(.W.=.e 5X5X5X5X",
"5X5X5X5X5X5Xd #.Q.(._.$X2X3X3X4X<XOXk.' 6.!.^.r.u 5X5X5X5X5X",
"5X5X5X5X5X5XC 7.~.'.-X3X3X3X3X3X3X3X].@.2.!.U.K O 5X5X5X5X5X",
"5X5X5X5X5X5X2 E E.].;X3X3X3X3X3X3X,X}.5.i.~.T.U o 5X5X5X5X5X",
"5X5X5X5X5X5X5X3 V.).XX<X3X2X1X>X%X[.x.t.Y.(.^.d.s 5X5X5X5X5X",
"5X5X5X5X5X5Xn.c.| H./.OX,X=X.X[.E.z.l.T.).(.(.E._ y 5X5X5X5X",
"5X5X5X5X5X5X4 1 H 8.I._.=X,X=XOX^.Q./.oX+X_./.L.T m 5X5X5X5X",
"5X5X5X5X5X5X- h %.A.W.)..X*X=X.X/.Q.^.}.|.^.P.9.c 5X5X5X5X5X",
"5X5X5X5X5X5X5X> q / :.P.!.^.T.F.i.2.u.D.f.X.o.^ ] 5X5X5X5X5X",
"5X5X5X5X5X5X5X5X6 $ t ) *.3.` G N Z B k n v.{ V 5X5X5X5X5X5X",
"5X5X5X5X5X5X5X5X5X5Xb.7 r z v 8 5X5X5X5X5X5X5X5X5X5X5X5X5X5X",
"5X5X5X5X5X5X5X5X5X5X5X5X5X5X5X5X5X5X5X5X5X5X5X5X5X5X5X5X5X5X"
};
