/* XPM */
static char *result[] = {
/* columns rows colors chars-per-pixel */
"30 30 134 2 ",
"   c #CE3904",
".  c #C23E0D",
"X  c #C23A17",
"o  c #BE441D",
"O  c #BA5115",
"+  c #B64A25",
"@  c #B1432E",
"#  c #BF4829",
"$  c #B54231",
"%  c #BD5432",
"&  c #C0480F",
"*  c #D64704",
"=  c #DA4400",
"-  c #D8420D",
";  c #CC570C",
":  c #D95C03",
">  c #D5550B",
",  c #DB5308",
"<  c #C74D14",
"1  c #CE4F18",
"2  c #D44A1B",
"3  c #DA4F1C",
"4  c #CF5D15",
"5  c #CB5118",
"6  c #D45314",
"7  c #DE5414",
"8  c #D05E15",
"9  c #D5501B",
"0  c #DA591B",
"q  c #ED4F04",
"w  c #ED5704",
"e  c #E75B02",
"r  c #E5500D",
"t  c #E55B0B",
"y  c #ED5B0A",
"u  c #F75D03",
"i  c #FB5C0E",
"p  c #E45213",
"a  c #E05811",
"s  c #F35A10",
"d  c #DF6C07",
"f  c #D5630C",
"g  c #DA650E",
"h  c #D76315",
"j  c #D66C14",
"k  c #D86917",
"l  c #D46D1E",
"z  c #D86818",
"x  c #DE7211",
"c  c #DF7B16",
"v  c #DE7C1E",
"b  c #E06504",
"n  c #EE6600",
"m  c #EC6D02",
"M  c #E4670B",
"N  c #EC6508",
"B  c #E16D0E",
"V  c #F16402",
"C  c #F36E01",
"Z  c #E57201",
"A  c #ED7303",
"S  c #EE7A02",
"D  c #EA750D",
"F  c #E37808",
"G  c #F37302",
"H  c #F97501",
"J  c #F47C02",
"K  c #FA7C04",
"L  c #F57A0C",
"P  c #E26211",
"I  c #EB6D13",
"U  c #ED6818",
"Y  c #F46B11",
"T  c #E47613",
"R  c #C84622",
"E  c #CB4F23",
"W  c #C35124",
"Q  c #C25728",
"!  c #D25623",
"~  c #C65435",
"^  c #C95C32",
"/  c #C36B23",
"(  c #D06625",
")  c #DD6921",
"_  c #AB5941",
"`  c #A45E4D",
"'  c #B25841",
"]  c #B65A4D",
"[  c #A7684E",
"{  c #B86A52",
"}  c #BF7255",
"|  c #A96C61",
" . c #E08D0F",
".. c #F48403",
"X. c #FA8404",
"o. c #F58B04",
"O. c #FB8C03",
"+. c #F3800B",
"@. c #F48E0C",
"#. c #FD8C0C",
"$. c #EF9008",
"%. c #F59502",
"&. c #FB9405",
"*. c #F49B03",
"=. c #FA9A04",
"-. c #F5920A",
";. c #FB920C",
":. c #FB9D0D",
">. c #E38113",
",. c #E2811C",
"<. c #E9881A",
"1. c #FB8512",
"2. c #F59810",
"3. c #EFA301",
"4. c #F3A400",
"5. c #FBA104",
"6. c #F6AC04",
"7. c #FCAC03",
"8. c #F0A60F",
"9. c #FCA609",
"0. c #F6A90A",
"q. c #FCAA0B",
"w. c #F3B404",
"e. c #FCB506",
"r. c #FCBB04",
"t. c #FDB40A",
"y. c #FCBC0A",
"u. c #FFA210",
"i. c #FFB610",
"p. c #F5C303",
"a. c #F9C102",
"s. c #F6C00C",
"d. c #907989",
"f. c None",
/* pixels */
"f.f.f.f.f.f.f.f.f.f.f.f.f.f.f.f.f.f.f.f.f.f.f.f.f.f.f.f.f.f.",
"f.f.f.f.f.f.f.f.f.f.f.f.f.f.f.f.f.f.f.f.f.f.f.f.f.f.f.f.f.f.",
"f.f.f.f.f.f.f.f.f.f.f.f.f.d.f.f.f.f.f.f.f.f.f.f.f.f.f.f.f.f.",
"f.f.f.f.f.f.f.f.f.f.f.f.f.f.f.f.f.f.f.f.f.f.f.f.f.f.f.f.f.f.",
"f.f.f.f.f.f.f.f.f.f.f.f.f.f.f.f.| f.f.f.f.f.f.f.f.f.f.f.f.f.",
"f.f.f.f.f.f.f.f.f.f.f.f.f.f.f.f.f._ f.f.f.f.f.f.f.f.f.f.f.f.",
"f.f.f.f.f.f.f.f.f.f.f.f.f.f.f.f.$ f.f.f.f.f.f.f.f.f.f.f.f.f.",
"f.f.f.f.f.f.f.f.f.f.f.f.f.f.f.E 2 f.f.f.f.f.f.f.f.f.f.f.f.f.",
"f.f.f.f.f.f.f.f.f.f.f.f.f.f.f.0 s ! f.f.f.f.f.f.f.f.f.f.f.f.",
"f.f.f.f.f.f.f.f.f.f.f.f.f.f.f.a i 9 f.f.f.f.f.f.f.f.f.f.f.f.",
"f.f.f.f.f.f.f.f.f.f.f.f.f.f.> y p ~ f.f.f.f.f.f.f.f.f.f.f.f.",
"f.f.f.f.f.f.f.f.f.f.f./ x D L P % f.f.f.f.f.f.f.f.f.f.f.f.f.",
"f.f.f.f.f.f.f.f.f.f.v 2.=.=.S > f.f.f.f.f.f.f.f.f.f.f.f.f.f.",
"f.f.f.f.f.f.f.f.f.T :.y.t.=.o.d g z ) ( f.f.f.f.f.f.f.f.f.f.",
"f.f.f.f.f.f.f.f.f.D u.i.t.q.*.-.-.@.;.@.>.f.f.f.f.f.f.f.f.f.",
"f.f.f.f.f.f.f.f.f.6 A &.9.9.%.=.*.*.4.6.%.g f.f.f.f.f.f.f.f.",
"f.f.f.f.f.f.f.f.f.f.f m S S X.O.5.e.r.e.9.b & f.f.f.f.f.f.f.",
"f.f.f.f.f.f.f.Q j  .8.9.=...C H &.e.y.y.6.O.M < f.f.f.f.f.f.",
"f.f.f.f.f.f.f.T :.e.a.a.a.e.O.G A ..*.7.3.*.#.I Q f.f.f.f.f.",
"f.f.f.f.f.; F -.*.6.e.w.w.s.e.q.:...G o.*.4.*.+.6 f.f.f.f.f.",
"f.f.f.f.; S ;.*.*.*.*.*.e.a.p.p.s.q.H J 7.r.e.&.B O f.f.f.f.",
"f.f.f.f.: o.&.&.%.%...o.e.r.a.r.r.q.H G 9.e.7.%...4 f.f.f.f.",
"f.f.f.. t 1.;.&.%.&.K G o.9.t.t.9...m J %.*.o.X.X.h f.f.f.f.",
"f.f.f.f.9 Y #.=.*.%.O.J m A S S F Z J -.*.o.n u Y 4 f.f.f.f.",
"f.f.f.f.f.7 G K K X.O.O.X.J G G ..%.5.=.-.A * - 3 f.f.f.f.f.",
"f.f.f.f.f.+ 1 r w w V K X.O.O.;.9.e.e.=.J , f.f.f.f.f.f.f.f.",
"f.f.f.f.f.f.f.$ X   = e m K O.*.6.e.5.X.t o f.f.f.f.f.f.f.f.",
"f.f.f.f.f.f.f.f.f.' ! U L O.&.=.;.K N a R f.f.f.f.f.f.f.f.f.",
"f.f.f.f.f.f.f.f.f.f.] ^ ) c <.,.k 5 # f.f.f.f.f.f.f.f.f.f.f.",
"f.f.f.f.f.f.f.f.f.f.f.f.f.[ } { ` f.f.f.f.f.f.f.f.f.f.f.f.f."
};
