/* XPM */
static char *_afb520538fe48b59f1996ab4f2435fc[] = {
/* columns rows colors chars-per-pixel */
"30 30 158 2 ",
"   c None",
".  c #C63F13",
"X  c #AD4F2B",
"o  c #B04B2C",
"O  c #B9492A",
"+  c #BF5322",
"@  c #BA5920",
"#  c #B9552F",
"$  c #B44B30",
"%  c #BD4A30",
"&  c #B04E3D",
"*  c #AF5736",
"=  c #A95837",
"-  c #A6543F",
";  c #AD5F3F",
":  c #B15531",
">  c #B85034",
",  c #B35E33",
"<  c #BB5C33",
"1  c #B1543C",
"2  c #BF583D",
"3  c #BE6129",
"4  c #B76235",
"5  c #BF6835",
"6  c #B6663D",
"7  c #DD4D0C",
"8  c #DB510F",
"9  c #D15B0E",
"0  c #CE4913",
"q  c #C54D1D",
"w  c #CE4F19",
"e  c #D24A15",
"r  c #C4511C",
"t  c #C3581D",
"y  c #D45415",
"u  c #D25919",
"i  c #E65302",
"p  c #E65B04",
"a  c #EE5F03",
"s  c #E35C0F",
"d  c #E85B0A",
"f  c #E95812",
"g  c #E45619",
"h  c #D2660E",
"j  c #DB630E",
"k  c #DD690E",
"l  c #D4730C",
"z  c #CD6315",
"x  c #C66C1C",
"c  c #D76516",
"v  c #D96C12",
"b  c #D6631B",
"n  c #DF7314",
"m  c #EA6303",
"M  c #ED6C01",
"N  c #E56908",
"B  c #E8680E",
"V  c #F36602",
"C  c #F36E03",
"Z  c #F1620E",
"A  c #EE7101",
"S  c #ED7D02",
"D  c #E3770B",
"F  c #EB710C",
"G  c #F27502",
"H  c #F97505",
"J  c #F47902",
"K  c #F97C04",
"L  c #F5730E",
"P  c #F57A0D",
"I  c #E26C12",
"U  c #EA6C11",
"Y  c #E27712",
"T  c #F07F10",
"R  c #F1771A",
"E  c #C04724",
"W  c #C64B27",
"Q  c #CB4C24",
"!  c #CC5924",
"~  c #C1532B",
"^  c #C8502A",
"/  c #D75727",
"(  c #C05A36",
")  c #CA6525",
"_  c #C66823",
"`  c #C4682C",
"'  c #D66D28",
"]  c #DF7521",
"[  c #9C5A5B",
"{  c #AB4E44",
"}  c #A25047",
"|  c #AB5544",
" . c #AE5B45",
".. c #AF5748",
"X. c #AB5B4A",
"o. c #B35A44",
"O. c #A2605F",
"+. c #936167",
"@. c #956C73",
"#. c #C26B42",
"$. c #C2604B",
"%. c #E68200",
"&. c #EB8302",
"*. c #EB8B01",
"=. c #EF8508",
"-. c #F58303",
";. c #FB8404",
":. c #F68C04",
">. c #FC8B04",
",. c #F68608",
"<. c #F88408",
"1. c #F48C0A",
"2. c #FD8C09",
"3. c #EE9602",
"4. c #EF9C03",
"5. c #F59403",
"6. c #FB9403",
"7. c #F69A02",
"8. c #FA9A03",
"9. c #F3900A",
"0. c #FA910A",
"q. c #F59808",
"w. c #FD9B09",
"e. c #EA8116",
"r. c #F98C16",
"t. c #FD9112",
"y. c #F6A604",
"u. c #FBA406",
"i. c #F6AF03",
"p. c #FAAC03",
"a. c #FDA40B",
"s. c #FCAB0A",
"d. c #F2B501",
"f. c #FBB404",
"g. c #F7BF04",
"h. c #FABC07",
"j. c #FABC06",
"k. c #F8BF07",
"l. c #FEBC06",
"z. c #FCBF06",
"x. c #FCBB04",
"c. c #FFB008",
"v. c #FCB00A",
"b. c #FDB408",
"n. c #FEB60B",
"m. c #FFB70B",
"M. c #FEB00C",
"N. c #FCB60C",
"B. c #FABC0B",
"V. c #FFBA0C",
"C. c #FCBC0D",
"Z. c #F3C000",
"A. c #F3C002",
"S. c #F6C301",
"D. c #F6C005",
"F. c #F8C300",
"G. c #F8C201",
"H. c #F8C007",
/* pixels */
"                                                            ",
"                                                            ",
"                                @.                          ",
"                                                            ",
"                              +.[                           ",
"                                - ~ ~                       ",
"                                | e f ! X.                  ",
"                                  Q g / o.                  ",
"                                  $.2                       ",
"                            , ` #.                          ",
"                        & r B R 5                           ",
"                        q C >.P t                           ",
"                        z :.7.:.m 0 o                       ",
"                      4 Y w.s.a.;.V p N D l _ o.            ",
"                    , v 0.p.x.j.y.5.2.6.8.7.1.] 6           ",
"                  3 n 1.4.i.x.l.N.s.7.7.7.8.6.r.'           ",
"                ) e.0.6.5.5.:.1.9.q.5.7.u.u.6.<.b           ",
"              @ T 6.8.>.H M S S =.&.&.5.u.u.:.F <           ",
"            # I 2.0.-.G M 5.f.f.m.s.5.&.5.6.<.j *           ",
"            r P 2.G A ,.u.l.S.G.x.V.M.3.3.u.2.F +           ",
"            r L ,.M :.s.l.x.G.g.j.C.B.d.d.l.u.2.U (         ",
"            1 u M J a.l.i.i.j.g.H.j.D.Z.Z.l.m.8.>.c -       ",
"              | w m w.s.*.%.w.v.b.b.f.d.j.m.u.8.:.k :       ",
"                 .9 2.8.;.M M G -.5.8.p.v.8.-.K L ! X.      ",
"                  x t.6.6.;.K J -.>.8.8.0.C i i g o.        ",
"                ; h <.6.7.8.6.7.8.8.6.2.L 7 . Q W           ",
"              [ $ 8 a H ;.2.2.2.2.;.C p y O ..O.}           ",
"                  & E e s d Z Z s y q % {                   ",
"                        = X ~ ^ > X.                        ",
"                                                            "
};
