/* XPM */
static char *result[] = {
/* columns rows colors chars-per-pixel */
"30 30 144 2 ",
"   c #B53E27",
".  c #CE3406",
"X  c #CE3E0C",
"o  c #D53603",
"O  c #C13715",
"+  c #BE471A",
"@  c #B34C1C",
"#  c #B84C19",
"$  c #B7511F",
"%  c #BD571A",
"&  c #BA4E2C",
"*  c #BD5226",
"=  c #BC512F",
"-  c #A84F36",
";  c #B84335",
":  c #B64C3A",
">  c #B94838",
",  c #A85638",
"<  c #B75431",
"1  c #B4533B",
"2  c #B9573F",
"3  c #B4593A",
"4  c #AC6033",
"5  c #BA6D34",
"6  c #CB530E",
"7  c #D15209",
"8  c #D85A0D",
"9  c #C24213",
"0  c #CB4E16",
"q  c #C5461D",
"w  c #CD4B1D",
"e  c #D44614",
"r  c #DA4E13",
"t  c #D34C1F",
"y  c #C45314",
"u  c #CE5314",
"i  c #C95718",
"p  c #CD591C",
"a  c #D25D13",
"s  c #DB5D15",
"d  c #D35518",
"f  c #DD5619",
"g  c #DB5F1B",
"h  c #E34002",
"j  c #E34D03",
"k  c #EB4D05",
"l  c #E25207",
"z  c #EE5E03",
"x  c #E05A0F",
"c  c #E35413",
"v  c #D36E0E",
"b  c #DF6D0A",
"n  c #DC7004",
"m  c #C9601E",
"M  c #DA6515",
"N  c #D76A14",
"B  c #D46318",
"V  c #DF6018",
"C  c #D76919",
"Z  c #D87016",
"A  c #DC7815",
"S  c #E26403",
"D  c #E86502",
"F  c #ED6D01",
"G  c #E76608",
"H  c #E46E0B",
"J  c #EB6E09",
"K  c #F36303",
"L  c #F96401",
"P  c #F26B01",
"I  c #FE6800",
"U  c #F26508",
"Y  c #F26D0F",
"T  c #EC7300",
"R  c #EE7D03",
"E  c #E2700F",
"W  c #E77F09",
"Q  c #F37200",
"!  c #F57C02",
"~  c #FA7D03",
"^  c #F37C0B",
"/  c #FA7F0B",
"(  c #E06710",
")  c #F06412",
"_  c #E67717",
"`  c #EC7013",
"'  c #E97B17",
"]  c #C74621",
"[  c #C04A2E",
"{  c #CC482A",
"}  c #C65425",
"|  c #CF5922",
" . c #C75630",
".. c #CA5232",
"X. c #CF6B22",
"o. c #D46222",
"O. c #D16229",
"+. c #D0682C",
"@. c #984F43",
"#. c #A65746",
"$. c #A95743",
"%. c #AA5944",
"&. c #A0554F",
"*. c #B15740",
"=. c #A15757",
"-. c #A45C50",
";. c #A66354",
":. c #DD811B",
">. c #EF8205",
",. c #EF8C02",
"<. c #F38402",
"1. c #FB8404",
"2. c #F68D02",
"3. c #FB8A03",
"4. c #F1860C",
"5. c #FC860B",
"6. c #F48A0D",
"7. c #FD8D0C",
"8. c #EF9104",
"9. c #F69503",
"0. c #FB9403",
"q. c #F69C02",
"w. c #FA9B03",
"e. c #FB940A",
"r. c #F79B09",
"t. c #FC9B0B",
"y. c #F08312",
"u. c #E99819",
"i. c #F4A201",
"p. c #FBA504",
"a. c #F5AC01",
"s. c #FCAF05",
"d. c #FBA40A",
"f. c #FCAB0A",
"g. c #FCB605",
"h. c #F6BE07",
"j. c #FCBC05",
"k. c #FCB30B",
"l. c #FBBC0A",
"z. c #FAAF14",
"x. c #FEB511",
"c. c #F5C301",
"v. c #FAC102",
"b. c None",
/* pixels */
"b.b.b.b.b.b.b.b.b.b.b.b.b.b.b.b.b.b.b.b.b.b.b.b.b.b.b.b.b.b.",
"b.b.b.b.b.b.b.b.b.b.b.b.b.b.b.b.b.b.b.b.b.b.b.b.b.b.b.b.b.b.",
"b.b.b.b.b.b.b.b.b.b.b.b.b.b.b.b.b.b.b.b.b.b.b.b.b.b.b.b.b.b.",
"b.b.b.b.b.b.b.b.b.b.b.b.b.b.b.b.b.b.b.b.b.b.b.b.b.b.b.b.b.b.",
"b.b.b.b.b.b.b.b.b.b.b.b.b.b.b.@.b.b.b.b.b.b.b.b.b.b.b.b.b.b.",
"b.b.b.b.b.b.b.b.b.b.b.b.b.b.;   &.b.b.b.b.b.b.b.b.b.b.b.b.b.",
"b.b.b.b.b.b.b.b.b.b.b.b.& t { b.b.b.b.b.b.b.b.b.b.b.b.b.b.b.",
"b.b.b.b.b.b.b.b.b.b.b.2 f c  .b.b.b.b.b.b.b.b.b.b.b.b.b.b.b.",
"b.b.b.b.b.b.b.b.b.b.b.*.g x } b.b.b.b.b.b.b.b.b.b.b.b.b.b.b.",
"b.b.b.b.b.b.b.b.b.b.b.b.M Y s * #.b.b.b.b.b.b.b.b.b.b.b.b.b.",
"b.b.b.b.b.b.b.b.b.b.b.O.^ 5.5.J y $.b.b.b.b.b.b.b.b.b.b.b.b.",
"b.b.b.b.b.b.b.b.b.b.%.s / e.9.3.H % 4 b.b.b.b.b.b.b.b.b.b.b.",
"b.b.b.b.b.b.b.b.b.b.b.1 p H 4.3.5.>.W _ +.b.b.b.b.b.b.b.b.b.",
"b.b.b.b.b.b.b.b.b.b.b.b.1 u D 1.0.s.s.p.6.o.b.b.b.b.b.b.b.b.",
"b.b.b.b.b.b.b.b.b.b.b.5 Z ! 3.0.w.k.x.s.0.P y b.b.b.b.b.b.b.",
"b.b.b.b.b.b.b.b.b.b.X.y.0.0.0.0.w.w.d.d.w.1.G i , b.b.b.b.b.",
"b.b.b.b.b.b.b.b.b.$ ` 6.<.<.1.<.,.<.9.q.9.w.3.^ o.b.b.b.b.b.",
"b.b.b.b.b.b.b.b.;.u P ! 8.t.f.p.9.R T <.0.p.p.e.A b.b.b.b.b.",
"b.b.b.b.b.b.1 ..} b 7.f.l.j.j.j.j.p.<.T 9.k.v.l.u.b.b.b.b.b.",
"b.b.b.b.b.b.o.) D ,.k.h.c.c.j.v.h.j.t.F <.x.v.v.x.:.b.b.b.b.",
"b.b.b.b.b.b.N 5.1.w.s.h.c.c.v.v.v.h.t.T ! f.g.g.d.' b.b.b.b.",
"b.b.b.b.b.# n e.w.w.i.a.h.j.j.v.v.f.3.P ! w.w.0.^ s b.b.b.b.",
"b.b.b.b.- 7 4.t.f.k.s.w.9.t.w.e.e.4.F T 3.0.1.U j 9 b.b.b.b.",
"b.b.b.b.@ S e.q.s.g.s.w.0.2.! Q P T <.r.p.3.K h o O b.b.b.b.",
"b.b.b.b.q z 1.0.q.i.q.w.q.0.1.<.3.3.d.x.f.Q k o o b.b.b.b.b.",
"b.b.b.b.> e z ! 3.9.w.0.0.2.2.9.9.w.q.q.3.I k X q b.b.b.b.b.",
"b.b.b.b.b.: w l D Q ~ 1.3.3.3.0.w.e.r.0.1.L r [ b.b.b.b.b.b.",
"b.b.b.b.b.b.=.: ] e d B H / 1.5.7.7.3.~ K c = b.b.b.b.b.b.b.",
"b.b.b.b.b.b.b.b.b.b.b.-.< | ( ( M C N a 0 & b.b.b.b.b.b.b.b.",
"b.b.b.b.b.b.b.b.b.b.b.b.b.b.b.b.b.b.b.b.b.b.b.b.b.b.b.b.b.b."
};
