/* XPM */
static char *result[] = {
/* columns rows colors chars-per-pixel */
"30 30 191 2 ",
"   c #051C0C",
".  c #181A09",
"X  c #121F18",
"o  c #241A11",
"O  c #0F220E",
"+  c #13220D",
"@  c #042415",
"#  c #0C2415",
"$  c #05251C",
"%  c #0B231C",
"&  c #052B1F",
"*  c #0C2B1F",
"=  c #122315",
"-  c #13231A",
";  c #1A221A",
":  c #142A1D",
">  c #1B2619",
",  c #222515",
"<  c #232917",
"1  c #21251D",
"2  c #232919",
"3  c #2D2418",
"4  c #392516",
"5  c #3E331D",
"6  c #062723",
"7  c #0B2423",
"8  c #032D23",
"9  c #0B2C24",
"0  c #00272C",
"q  c #0E2528",
"w  c #022A2C",
"e  c #0D2D2B",
"r  c #112626",
"t  c #132925",
"y  c #1F2C22",
"u  c #132D2C",
"i  c #172728",
"p  c #0D312B",
"a  c #13332F",
"s  c #032A31",
"d  c #122F33",
"f  c #153335",
"g  c #193433",
"h  c #1A3A35",
"j  c #1C333A",
"k  c #1C3A3D",
"l  c #163735",
"z  c #0B3937",
"x  c #202D23",
"c  c #21313E",
"v  c #4E2B17",
"b  c #59301E",
"n  c #493B20",
"m  c #663729",
"M  c #564227",
"N  c #624A2E",
"B  c #6D473E",
"V  c #70443B",
"C  c #6F5139",
"Z  c #1F3240",
"A  c #223B42",
"S  c #0B444F",
"D  c #0F4654",
"F  c #0D4E5C",
"G  c #074053",
"H  c #124B57",
"J  c #10505A",
"K  c #3B514F",
"L  c #394E5F",
"P  c #3E5253",
"I  c #134C62",
"U  c #184B66",
"Y  c #185569",
"T  c #176879",
"R  c #096676",
"E  c #25697B",
"W  c #366171",
"Q  c #28757F",
"!  c #38787A",
"~  c #434F4F",
"^  c #4B4D4A",
"/  c #54554F",
"(  c #444F5A",
")  c #464656",
"_  c #435456",
"`  c #495355",
"'  c #43555A",
"]  c #4A515B",
"[  c #4A5A5A",
"{  c #555953",
"}  c #795640",
"|  c #7D5850",
" . c #654945",
".. c #485E75",
"X. c #406261",
"o. c #5C736D",
"O. c #637066",
"+. c #805B48",
"@. c #8A604A",
"#. c #996551",
"$. c #A4654A",
"%. c #A9624C",
"&. c #AB6B5A",
"*. c #B26B59",
"=. c #BB785E",
"-. c #BA7B6A",
";. c #C37E5D",
":. c #C4865B",
">. c #C7885C",
",. c #C98969",
"<. c #D18F73",
"1. c #D2967D",
"2. c #006A8C",
"3. c #166282",
"4. c #146F85",
"5. c #1D6A83",
"6. c #1C6987",
"7. c #1C7584",
"8. c #047192",
"9. c #177D95",
"0. c #28798C",
"q. c #377D8D",
"w. c #387B81",
"e. c #277D96",
"r. c #5A7990",
"t. c #19839B",
"y. c #168B9F",
"u. c #2C818A",
"i. c #3D818A",
"p. c #268197",
"a. c #078EAB",
"s. c #1B8CA3",
"d. c #1A87A6",
"f. c #0A90A9",
"g. c #1395A6",
"h. c #1998AC",
"j. c #0B8AB8",
"k. c #0F97B1",
"l. c #1C94B4",
"z. c #1B9CB4",
"x. c #169EBA",
"c. c #1B95BA",
"v. c #138AB5",
"b. c #248CAB",
"n. c #348FA1",
"m. c #2C95A8",
"M. c #3B94A2",
"N. c #3597A7",
"B. c #249FB9",
"V. c #2A97B8",
"C. c #0BA8B1",
"Z. c #17A6B8",
"A. c #2CA1B5",
"S. c #34ACBA",
"D. c #29B6BF",
"F. c #739B9D",
"G. c #69999B",
"H. c #4D9CAD",
"J. c #5AABB7",
"K. c #48B5BC",
"L. c #0B9AC5",
"P. c #1D9DC3",
"I. c #1695C6",
"U. c #1C9BD0",
"Y. c #2A9AC3",
"T. c #08AACB",
"R. c #1AA8C8",
"E. c #04B5C4",
"W. c #0BB4C6",
"Q. c #15B0CF",
"!. c #20A8C3",
"~. c #24B4C4",
"^. c #37B7D0",
"/. c #4EB6C3",
"(. c #5AB7C6",
"). c #8D998F",
"_. c #8C9290",
"`. c #D0A595",
"'. c #FFDCBF",
"]. c #84C0C1",
"[. c #AACDC7",
"{. c #B9CFC3",
"}. c #CFD8D5",
"|. c #D4DBDD",
" X c #DADBDF",
".X c #FFDCC5",
"XX c #E7D6D1",
"oX c #FFDDD4",
"OX c #D8DBE1",
"+X c #D7DCE0",
"@X c None",
/* pixels */
"@X@X@X@X@X@X@X@X@X@X@X@X@X@X@X@X@X@X@X@X@X@X@X@X@X@X@X@X@X@X",
"@X@X@X@X@X@X@X@X@X@X@X@X@X@X@X@X@X@X@X@X@X@X@X@X@X@X@X@X@X@X",
"@X@X@X@X@X@X@X@X@X@X@X@X@X@X@X@X@X@X@X@X@X@X@X@X@X@X@X@X@X@X",
"@X@X@X@X@X@X@X@X@X@X@X@X@X@X@X@X@X@X@X@X@X@X@X@X@X@X@X@X@X@X",
"@X@X@X@X@X@X@X@X@X@X@X@X@X@X@X@X@X@X@X.X'..XoX@X@X@X@X@X@X@X",
"@X@X@X@X@X@X@X@X@X@X@X@X@X@X@X@X@X@X@X@X@X@X@X@X@X@X@X@X@X@X",
"@X@X@X&.4 + , < < > < > x 1 < < 1 y A W Q M.D.D.~.~.R.S.w.@X",
"@X@X@X-.3 = =   @ @ @ @ $ $ # = @ 0 G 6.8.Z.E.C.E.T.W.~.u.@X",
"@X@X@X=.5 O = # # @ @ % 7 r t - : & H 0.2.k.C.C.R.Q.Q.x.i.@X",
"@X@X@X:.n + = = # # $ 6 7 r t : O 8 S 5.9.A.M.K.^.R.T.R.@X@X",
"@X@X@X>.M . - X # % 7 7 q r t t * 8 D T 7.u.W F.(.P.L.P.@X@X",
"@X@X@X>.M . ; X - % % 7 q q 9 * * $ H Q 7.! / _.J.c.L.c.@X@X",
"@X@X@X>.C . X X X % 7 7 q q 9 9 t 6 J T T w.{ ).J.h.x.s.@X@X",
"@X@X@X:.} o ; - % % $ 6 r r 9 * % 9 F T p.i.O.{.(.g.z.9.@X@X",
"@X@X@X:.| 3 - $ % $ $ 6 t t : 9 9 w F 5.p.q.o.[./.f.V.4.@X@X",
"@X@X@X:.@.4 > % * $ $ 9 t t * * 9 0 I 5.p.H.G.].S.f.z.R @X@X",
"@X@X@X@X#.4 > 9 t % 6 e e q * & 8 w Y 5.9.N.M.n.V.a.h.@X@X@X",
"@X@X@X@X$.v y 9 u t 9 a d e 8 8 8 w I 3.t.y.t.d.P.a.g.@X@X@X",
"@X@X@X,.$.b y p u t p h f d p 9 p s U 3.b.l.V.Y.I.j.l.@X@X@X",
"@X@X@X,.%.m > h a a a c j d f e p w Y 6.d.l.c.v.U.j.l.@X@X@X",
"@X@X@X<.*.m > k f f l c j j l a p s Y 4.s.c.c.P.P.v.9.@X@X@X",
"@X@X@X1.&.V 1 h g g c D c c h l h z H T N.N.m.V.Y.b.7.@X@X@X",
"@X@X@X`.#.| ^ _ _ P ' ' ( ( _ K P P L ..r.r.@X@X@X@X@X@X@X@X",
"@X@X@X`. . .{ [ ` _ _ ] ] ] ` _ ~ _ ) ) ) @X@X@X@X@X@X@X@X@X",
"@X@X@X@XXXXX X|.OX X XOXOXOX|.|.}.|.}.@X@X@X@X@X@X@X@X@X@X@X",
"@X@X@X@X@X@X@X@X@X@X@X@X@X@X@X@X@X@X@X@X@X@X@X@X@X@X@X@X@X@X",
"@X@X@X@X@X@X@X@X@X@X@X@X@X@X@X@X@X@X@X@X@X@X@X@X@X@X@X@X@X@X",
"@X@X@X@X@X@X@X@X@X@X@X@X@X@X@X@X@X@X@X@X@X@X@X@X@X@X@X@X@X@X",
"@X@X@X@X@X@X@X@X@X@X@X@X@X@X@X@X@X@X@X@X@X@X@X@X@X@X@X@X@X@X",
"@X@X@X@X@X@X@X@X@X@X@X@X@X@X@X@X@X@X@X@X@X@X@X@X@X@X@X@X@X@X"
};
