/* XPM */
static char *result[] = {
/* columns rows colors chars-per-pixel */
"30 30 193 2 ",
"   c #002535",
".  c #072D34",
"X  c #033238",
"o  c #644439",
"O  c #774E3C",
"+  c #7D5138",
"@  c #002E40",
"#  c #093948",
"$  c #163E46",
"%  c #07424C",
"&  c #054855",
"*  c #1C4C50",
"=  c #1D5A5D",
"-  c #24464F",
";  c #3F4D4D",
":  c #3C4B55",
">  c #3E5457",
",  c #3D525B",
"<  c #3A5C5E",
"1  c #24555C",
"2  c #004961",
"3  c #0A5D6B",
"4  c #045A6B",
"5  c #195969",
"6  c #045E73",
"7  c #0D5B74",
"8  c #2C5E69",
"9  c #345D61",
"0  c #3C5E64",
"q  c #335E6F",
"w  c #1F746F",
"e  c #036475",
"r  c #0C6376",
"t  c #0D637C",
"y  c #046B7C",
"u  c #056978",
"i  c #13657C",
"p  c #1B6675",
"a  c #276766",
"s  c #3D6366",
"d  c #3D606B",
"f  c #346262",
"g  c #38706F",
"h  c #2B6573",
"j  c #296E7B",
"k  c #276872",
"l  c #376D76",
"z  c #3A667B",
"x  c #297777",
"c  c #494A49",
"v  c #574A41",
"b  c #444D59",
"n  c #44545A",
"m  c #485255",
"M  c #565352",
"N  c #664C42",
"B  c #72554A",
"V  c #755E50",
"C  c #685245",
"Z  c #42615B",
"A  c #7F6156",
"S  c #465861",
"D  c #537569",
"F  c #476B79",
"G  c #71746D",
"H  c #85583C",
"J  c #9A6241",
"K  c #9E6450",
"L  c #B86848",
"P  c #B57155",
"I  c #B17158",
"U  c #B36751",
"Y  c #8C7168",
"T  c #B77A63",
"R  c #C36B4B",
"E  c #C97E61",
"W  c #47837B",
"Q  c #B8846E",
"!  c #BCA67D",
"~  c #C78668",
"^  c #D08865",
"/  c #C88E74",
"(  c #C19F72",
")  c #D8987C",
"_  c #0F6E8E",
"`  c #037285",
"'  c #0B728A",
"]  c #0A7A86",
"[  c #13768D",
"{  c #187584",
"}  c #037D94",
"|  c #0F7E99",
" . c #097497",
".. c #147391",
"X. c #167D93",
"o. c #177999",
"O. c #376A83",
"+. c #3A6983",
"@. c #23778A",
"#. c #3C7385",
"$. c #006DAC",
"%. c #0375AB",
"&. c #057DAF",
"*. c #006FB4",
"=. c #0F73B4",
"-. c #087ABA",
";. c #197AB6",
":. c #157AA4",
">. c #417281",
",. c #48708A",
"<. c #00819D",
"1. c #088D9D",
"2. c #008A9D",
"3. c #1B8194",
"4. c #15839C",
"5. c #198898",
"6. c #0F959E",
"7. c #22868A",
"8. c #21849C",
"9. c #29899D",
"0. c #3A8C91",
"q. c #3F9999",
"w. c #3A858A",
"e. c #008AA2",
"r. c #068DA7",
"t. c #1A88A7",
"y. c #0B92A8",
"u. c #159BA6",
"i. c #1895A8",
"p. c #0B8CBE",
"a. c #0687B5",
"s. c #1B8ABC",
"d. c #0F97B1",
"f. c #1C96B3",
"g. c #2787AF",
"h. c #2999A8",
"j. c #3294A9",
"k. c #3E96A4",
"l. c #2E8AB5",
"z. c #2787B8",
"x. c #299CB5",
"c. c #2696B5",
"v. c #369AB4",
"b. c #3493BC",
"n. c #389AB3",
"m. c #1FA6BA",
"M. c #29A2B9",
"N. c #5D8F86",
"B. c #4B8C92",
"V. c #419196",
"C. c #44939C",
"Z. c #5E9097",
"A. c #6A998E",
"S. c #5EA09C",
"D. c #749DA3",
"F. c #52A2A3",
"G. c #48A3BC",
"H. c #4BB1BD",
"J. c #5DB0B8",
"K. c #0E8FC8",
"L. c #118DC1",
"P. c #109ACB",
"I. c #199BD5",
"U. c #2383C1",
"Y. c #258ECF",
"T. c #349BC3",
"R. c #16ABCB",
"E. c #2EA9C1",
"W. c #6EC1C7",
"Q. c #92B49C",
"!. c #B8B09D",
"~. c #A2B599",
"^. c #9FB4AD",
"/. c #8DABA6",
"(. c #A4B9AE",
"). c #BEB1A1",
"_. c #C4AE97",
"`. c #D8AA93",
"'. c #E3A287",
"]. c #E3AD94",
"[. c #C5B7A9",
"{. c #CFBFB2",
"}. c #B7C2B5",
"|. c #DCDACE",
" X c #DAD5CD",
".X c #D9DDD6",
"XX c #DADCDB",
"oX c #D2DED2",
"OX c #EDD9C9",
"+X c #D3E1D7",
"@X c #D6DEE1",
"#X c #DBDBE1",
"$X c None",
/* pixels */
"$X$X$X$X$X$X$X$X$X$X$X$X$X$X$X$X$X$X$X$X$X$X$X$X$X$X$X$X$X$X",
"$X$X$X$X$X$X$X$X$X$X$X$X$X$X$X$X$X$X$X$X$X$X$X$X$X$X$X$X$X$X",
"$X$X$X$X$X$X$X$X$X$X$X$X$X$X$X$X$X$X$X$X$X$X$X$X$X$X$X$X$X$X",
"$X$X$X$X$X$X$X$X$X$X$X$X$X$X$X$X$X$X$X$X$X$X$X$X$X$X$X$X$X$X",
"$X$X$X$X$X$X$X$X$X$X$X$X$X$X$X$X$X$X$X$X$X$X$X$X$X$XOX$X$X$X",
"$X$X$X`./ T $X$X$X$X$X$X$X$X$X$X$X$X$X$X$X$X$X$X$X$X$X$X$X$X",
"$X$X$X$XQ o S q 8 l l k x w w x j j l x a g Z G ].$X$X$X$X$X",
"$X$X$X$X/ o F 7 r 3.3.4.u.u.u.u.i.c.i.6.u 7.w./.].$X$X$X$X$X",
"$X$X$X$X~ O d 7 e y ` } y.y.d.y.y.r.1.1.` h.0.(.'.$X$X$X$X$X",
"$X$X$X$X^ + s r e ` 4.| 4.t.x.M.x.x.M.2.2.h.q.(.'.$X$X$X$X$X",
"$X$X$X$X$XH 0 r e y 5.6 # & % & 2 ..E.2.e.M.0.(.) $X$X$X$X$X",
"$X$X$X$X$XH < r e e 3.4   . . X   { M.2.e.f.0.}./ $X$X$X$X$X",
"$X$X$X$X$XJ > p u y X.r @ # $ $ % { M.%.a.c.C.}.~ $X$X$X$X$X",
"$X$X$X$X$XU m k 3 y ' t # - 9 f = 0.h.} a.b.Z.[.T $X$X$X$X$X",
"$X$X$X$X$XL c h r u { p * Z D D W F.t. .&.g.D.[.R $X$X$X$X$X",
"$X$X$X$X$XR c h 3 u [ @.a N.A.A.S.J.8. .p.l./._.$X$X$X$X$X$X",
"$X$X$X$X$XR v 9 3 y ..[ 7.q.B.C.k.j.s.$.&.v.Q.! $X$X$X$X$X$X",
"$X$X$X$X$XR C s 5 ` ..' ] 5.o.o.o.:.=.*.K.n.~.( $X$X$X$X$X$X",
"$X$X$X$X$XR N > 5 7 .. .4.c.l.z.;.U.=.*.I.G.!.~ $X$X$X$X$X$X",
"$X$X$X$X$XR B n 5 t _ _ | g.z.U.;.Y.=.-.P.G._.E $X$X$X$X$X$X",
"$X$X$X$X$XL B n 5 r [ X.t.f.s.s.L.p.%.p.R.H.).I $X$X$X$X$X$X",
"$X$X$X$X$XP A c 1 p @.9.j.v.b.b.l.T.T.:.E.W.{.K $X$X$X$X$X$X",
"$X$X$X$X$XI A M S d z F l #.+.+.O.z ,.+.>.F Y $X$X$X$X$X$X$X",
"$X$X$X$X$XH v M n n b b > > S S < : b : , $X$X$X$X$X$X$X$X$X",
"$X$X$X$X$XOX XXX@X@X#XXX+X+XXX+X+XoX.XXX#XXX.X|.$X$X$X$X$X$X",
"$X$X$X$X$X$X$X$X$X$X$X$X$X$X$X$X$X$X$X$X$X$X$X$X$X$X$X$X$X$X",
"$X$X$X$X$X$X$X$X$X$X$X$X$X$X$X$X$X$X$X$X$X$X$X$X$X$X$X$X$X$X",
"$X$X$X$X$X$X$X$X$X$X$X$X$X$X$X$X$X$X$X$X$X$X$X$X$X$X$X$X$X$X",
"$X$X$X$X$X$X$X$X$X$X$X$X$X$X$X$X$X$X$X$X$X$X$X$X$X$X$X$X$X$X",
"$X$X$X$X$X$X$X$X$X$X$X$X$X$X$X$X$X$X$X$X$X$X$X$X$X$X$X$X$X$X"
};
