/* XPM */
static char *result[] = {
/* columns rows colors chars-per-pixel */
"30 30 239 2 ",
"   c #091518",
".  c #0D1619",
"X  c #0E1D1D",
"o  c #111617",
"O  c #121A1A",
"+  c #131B1B",
"@  c #141B1A",
"#  c #141B1B",
"$  c #151B1C",
"%  c #151C1D",
"&  c #181D1A",
"*  c #191E1D",
"=  c #191D1E",
"-  c #1A1D1E",
";  c #1C1E1F",
":  c #15211C",
">  c #1F1F20",
",  c #1B2020",
"<  c #1F2725",
"1  c #1E232B",
"2  c #10282B",
"3  c #1D3F3E",
"4  c #212023",
"5  c #272722",
"6  c #282327",
"7  c #292228",
"8  c #2A2328",
"9  c #2E252A",
"0  c #36282F",
"q  c #393127",
"w  c #383128",
"e  c #252D3D",
"r  c #332637",
"t  c #3C2A31",
"y  c #3A2A39",
"u  c #4A3D2D",
"i  c #4A3D2F",
"p  c #462B36",
"a  c #402C35",
"s  c #4B2E3A",
"d  c #433231",
"f  c #4E3F30",
"g  c #4B303B",
"h  c #4C303C",
"j  c #4D313C",
"k  c #4E313C",
"l  c #4E313D",
"z  c #4F323D",
"x  c #4F333E",
"c  c #51333A",
"v  c #50323F",
"b  c #52333F",
"n  c #275839",
"m  c #514131",
"M  c #5F4A36",
"N  c #5F4B36",
"B  c #644D38",
"V  c #664E39",
"C  c #674F39",
"Z  c #6A513A",
"A  c #7C5A3F",
"S  c #242941",
"D  c #2E3146",
"F  c #2D3940",
"G  c #2D3448",
"H  c #353A4D",
"J  c #233154",
"K  c #2F3B5A",
"L  c #313E6A",
"P  c #423241",
"I  c #4B3A49",
"U  c #533340",
"Y  c #533440",
"T  c #543440",
"R  c #553441",
"E  c #563541",
"W  c #583641",
"Q  c #5B3742",
"!  c #5B3743",
"~  c #503846",
"^  c #583943",
"/  c #5F3840",
"(  c #5F3940",
")  c #603A40",
"_  c #613A40",
"`  c #683C48",
"'  c #6A3D49",
"]  c #3A5B4A",
"[  c #32634A",
"{  c #3C456A",
"}  c #3E486F",
"|  c #3F4870",
" . c #5B4142",
".. c #5E4540",
"X. c #51454C",
"o. c #565142",
"O. c #514D5C",
"+. c #704249",
"@. c #734348",
"#. c #744448",
"$. c #71404C",
"%. c #7A444F",
"&. c #7B444F",
"*. c #7D484D",
"=. c #7F4A4E",
"-. c #7B5B40",
";. c #7C5C40",
":. c #427A4F",
">. c #407C4F",
",. c #427E4F",
"<. c #5E6A57",
"1. c #4A7855",
"2. c #517951",
"3. c #527952",
"4. c #527A52",
"5. c #527A53",
"6. c #677455",
"7. c #6F7555",
"8. c #464C6B",
"9. c #55566C",
"0. c #5D576E",
"q. c #444D7A",
"w. c #6B5D65",
"e. c #68596E",
"r. c #447565",
"t. c #44776B",
"y. c #497A6C",
"u. c #4A7B6E",
"i. c #547B6C",
"p. c #55617C",
"a. c #834C4F",
"s. c #805F45",
"d. c #88524E",
"f. c #824752",
"g. c #854D50",
"h. c #864E50",
"j. c #874E50",
"k. c #864954",
"l. c #8E4D57",
"z. c #914E58",
"x. c #924E58",
"c. c #934E59",
"v. c #934F59",
"b. c #856141",
"n. c #91624C",
"m. c #926A49",
"M. c #8E6055",
"N. c #9A6D5C",
"B. c #9C6D5C",
"V. c #9E6D5C",
"C. c #9C6E5D",
"Z. c #9D6E5E",
"A. c #AD6F52",
"S. c #AE635D",
"D. c #AC6E5E",
"F. c #B2645E",
"G. c #B2655E",
"H. c #AE7B53",
"J. c #896F72",
"K. c #907574",
"L. c #9D7872",
"P. c #B96960",
"I. c #BD6C61",
"U. c #A67C60",
"Y. c #C37063",
"T. c #C67D61",
"R. c #D47E67",
"E. c #D67E67",
"W. c #D67F67",
"Q. c #D87E67",
"!. c #898F5D",
"~. c #AD8C7F",
"^. c #AD9770",
"/. c #C08759",
"(. c #CD8D5B",
"). c #C68860",
"_. c #C38A64",
"`. c #C38D69",
"'. c #CA886D",
"]. c #D28167",
"[. c #D78067",
"{. c #DE8764",
"}. c #D78E62",
"|. c #DC8F6A",
" X c #C7906F",
".X c #DD9964",
"XX c #D39D69",
"oX c #E18F6A",
"OX c #E49D66",
"+X c #E59E67",
"@X c #E5916A",
"#X c #EB966C",
"$X c #E09C68",
"%X c #ED9A6C",
"&X c #EB9E6E",
"*X c #E7A06E",
"=X c #EAA068",
"-X c #EEA46A",
";X c #F2A76F",
":X c #F6A46E",
">X c #F6A56E",
",X c #F7A56E",
"<X c #F9A16D",
"1X c #F9A76F",
"2X c #FDA96C",
"3X c #FFAE6F",
"4X c #FFB06F",
"5X c #F3A870",
"6X c #F4A970",
"7X c #F7AB73",
"8X c #FAAF76",
"9X c #FFB270",
"0X c #FFB370",
"qX c #FFB371",
"wX c #FFB372",
"eX c #FFB373",
"rX c #FFB671",
"tX c #FFB472",
"yX c #FFB074",
"uX c #FFB374",
"iX c #FFBE78",
"pX c #515782",
"aX c #565A84",
"sX c #545B8B",
"dX c #5E6D93",
"fX c #636F92",
"gX c #657194",
"hX c #697190",
"jX c #6C7891",
"kX c #7C7991",
"lX c #9F8E92",
"zX c #BEA493",
"xX c #8692A4",
"cX c #FFD39A",
"vX c #ECCCAA",
"bX c #F6D9B1",
"nX c #AFB5C4",
"mX c #DCE2D6",
"MX c None",
/* pixels */
"MXMXMXMXMXMXMXMXMXMXMXMXMXMXMXMXMXMXMXMXMXMXMXMXMXMXMXMXMXMX",
"MXMXMXMXMXMXMXMXMXMXMXMXMXMXMXMXMXMXMXMXMXMXMXMXMXMXMXMXMXMX",
"MXMXMXMXMXMXMXMXMXMXMXMXMXMXMXMXMXMXMXMXMXMXMXMXMXMXMXMXMXMX",
"MXMXMXMXMXMXMXMXMXMXMXMXMXMXMXMXMXMXMXMXMXMXMXMXMXMXMXMXMXMX",
"MXMXMXMXMXMXMX= - ; > > > > > > > > > > ; - = MXMXMXMXMXMXMX",
"MXMXMXMXMXMX+ 6 t c ) _ ( ( ( ( ( ( _ ) c t 6 + MXMXMXMXMXMX",
"MXMXMXMXMX- 4 0 T $.k.l.z.z.z.z.z.z.l.k.$.T 0 4 - MXMXMXMXMX",
"MXMXMXMX$ 8 a g Y ! ` f.c.v.x.x.v.c.f.` ! Y g a 8 $ MXMXMXMX",
"MXMXMXMX$ 9 z R b l U ' %.&.%.%.&.%.' U l b R z 9 $ MXMXMXMX",
"MXMXMXMX$ 9 k T b b T W Q Q Q Q Q Q W T b b T k 9 $ MXMXMXMX",
"MXMXMXMX$ 9 j U E +.g.h.a.=.*.*.=.a.h.g.+.E U j 9 $ MXMXMXMX",
"MXMXMXMX$ 9 j v W j.S.F.G.P.I.I.P.G.F.S.j.W v j 9 $ MXMXMXMX",
"MXMXMXMX. 7 h s p / #.@.d.T.#X#XT.d.@.#./ p s h 7 . MXMXMXMX",
"MXMXMXMXw d x ~ I P y r  .).wXwX). .r y P I ~ x d w MXMXMXMX",
"MXMXO N H.n.^ e.kX9.D S X._.tXtX_.X.S D 9.kXe.^ n.H.N O MXMX",
"MXMXO Z =X}.M.lXnXjXK J O.`.qXqX`.O.J K jXnXlXM.}.=XZ O MXMX",
"MXMXO V OX2X*XvXmXxX} L 0. X9X9X X0.L } xXmXvX*X2XOXV O MXMX",
"MXMXMXm m.(.uXcXbXzXK.J.L.'.@X@X'.L.J.K.zXbXcXuX(.m.m MXMXMX",
"MXMXMXMX5 ;.+XyX8X7X5X6X&X].Y.Y.].&X6X5X7X8XyX+X;.5 MXMXMXMX",
"MXMXMXMXMXu A A.{.<X0XrX3X%XoXoX%X3XrX0X<X{.A.A u MXMXMXMXMX",
"MXMXMXMXMXX < ..D.|.:X1X,X,X>X>X,X,X1X:X|.D...< X MXMXMXMXMX",
"MXMXMXMX  2 3 ] 6.U.R.Q.E.W.[.[.W.E.Q.R.U.6.] 3 2   MXMXMXMX",
"MXMXMXq i o.<.1.>.7.N.V.B.C.Z.Z.C.B.V.N.7.>.1.<.o.i q MXMXMX",
"MXMXO M /.$XXX!.,.:.2.3.3.4.5.5.4.3.3.2.:.,.!.XX$X/.M O MXMX",
"MXMXO C -XiXeX^.i.t.y.u.r.[ n n [ r.u.y.t.i.^.eXiX-XC O MXMX",
"MXMXO B .X4X;X~.hXdXfXgXp.F : : F p.gXfXdXhX~.;X4X.XB O MXMX",
"MXMXMXf -.b.s.w.aXsXpX8.H 1 o o 1 H 8.pXsXaXw.s.b.-.f MXMXMX",
"MXMXMXMX* & , G | q.{ e % @ # # @ % e { q.| G , & * MXMXMXMX",
"MXMXMXMXMXMXMXMXMXMXMXMXMXMXMXMXMXMXMXMXMXMXMXMXMXMXMXMXMXMX",
"MXMXMXMXMXMXMXMXMXMXMXMXMXMXMXMXMXMXMXMXMXMXMXMXMXMXMXMXMXMX"
};
