/* XPM */
static char *ec5e2d83a90545dd804cc0bee54eca63[] = {
/* columns rows colors chars-per-pixel */
"30 30 208 2 ",
"   c #010103",
".  c #0C0305",
"X  c #030802",
"o  c #02030B",
"O  c #09030C",
"+  c #010B0B",
"@  c #140E0F",
"#  c #07120A",
"$  c #0E100F",
"%  c #000610",
"&  c #030D13",
"*  c #0C0B12",
"=  c #090C1C",
"-  c #030D19",
";  c #120C15",
":  c #110E19",
">  c #021214",
",  c #0B1415",
"<  c #04131B",
"1  c #0B151C",
"2  c #07191B",
"3  c #0C1A1C",
"4  c #111517",
"5  c #131B1D",
"6  c #141519",
"7  c #0D211F",
"8  c #16201F",
"9  c #051422",
"0  c #0B1223",
"q  c #041921",
"w  c #0D1B23",
"e  c #0D1E28",
"r  c #131522",
"t  c #191621",
"y  c #121C24",
"u  c #1B1F23",
"i  c #131D2A",
"p  c #191F2F",
"a  c #1B1E31",
"s  c #201E29",
"d  c #0E2224",
"f  c #0D242D",
"g  c #132225",
"h  c #1B2224",
"j  c #13242B",
"k  c #1B242D",
"l  c #132B2C",
"z  c #1E2C2D",
"x  c #18322F",
"c  c #0E2533",
"v  c #0D2A32",
"b  c #162532",
"n  c #1B2431",
"m  c #142B34",
"M  c #1C2C33",
"N  c #172F3B",
"B  c #1C2D3B",
"V  c #1D3335",
"C  c #1C333B",
"Z  c #1C3B3E",
"A  c #173533",
"S  c #2C2B2D",
"D  c #27292D",
"F  c #222732",
"G  c #232C34",
"H  c #282B32",
"J  c #252E3A",
"K  c #2B2F38",
"L  c #253335",
"P  c #213A37",
"I  c #25343C",
"U  c #2A333C",
"Y  c #223A3D",
"T  c #2C3A3D",
"R  c #303539",
"E  c #1D3240",
"W  c #1D3D42",
"Q  c #253542",
"!  c #263C43",
"~  c #2B3B45",
"^  c #253648",
"/  c #253D4B",
"(  c #2A3D4B",
")  c #2C3345",
"_  c #323445",
"`  c #343C45",
"'  c #333E4B",
"]  c #2C3A52",
"[  c #274346",
"{  c #2D4145",
"}  c #24444B",
"|  c #2B434B",
" . c #22484B",
".. c #2C494F",
"X. c #33444C",
"o. c #3A464B",
"O. c #31494D",
"+. c #384C4D",
"@. c #2B4553",
"#. c #2D4B53",
"$. c #2F4D58",
"%. c #354652",
"&. c #394654",
"*. c #334C54",
"=. c #3B4C54",
"-. c #344E5B",
";. c #394C5A",
":. c #2F5153",
">. c #2D545E",
",. c #305357",
"<. c #3C5256",
"1. c #35535A",
"2. c #3C545D",
"3. c #365859",
"4. c #39595D",
"5. c #3A5E54",
"6. c #2F4E60",
"7. c #355766",
"8. c #3B5563",
"9. c #345962",
"0. c #3C5A64",
"q. c #3E5368",
"w. c #3E5F68",
"e. c #3D6365",
"r. c #3D646E",
"t. c #3D686F",
"y. c #3E6876",
"u. c #474C4F",
"i. c #42545D",
"p. c #435A5D",
"a. c #495B5D",
"s. c #414C62",
"d. c #415260",
"f. c #435C64",
"g. c #4A5C64",
"h. c #435669",
"j. c #435C6A",
"k. c #4C5C6D",
"l. c #515E67",
"z. c #446364",
"x. c #4A6266",
"c. c #486867",
"v. c #44636C",
"b. c #4B646B",
"n. c #43696D",
"m. c #4C6B6D",
"M. c #51636C",
"N. c #536E6F",
"B. c #436473",
"V. c #4C6472",
"C. c #446B74",
"Z. c #4B6A74",
"A. c #4D667A",
"S. c #476B79",
"D. c #4A6D7B",
"F. c #526573",
"G. c #526D74",
"H. c #506779",
"J. c #536D7A",
"K. c #5E6C75",
"L. c #4D727C",
"P. c #4A7176",
"I. c #527476",
"U. c #5F7477",
"Y. c #54727C",
"T. c #5B767E",
"R. c #4C6F83",
"E. c #4E7483",
"W. c #4E7A84",
"Q. c #4E798C",
"!. c #537384",
"~. c #597382",
"^. c #557B84",
"/. c #5B7B84",
"(. c #567589",
"). c #557B8D",
"_. c #5A7D8C",
"`. c #5E7F90",
"'. c #577D92",
"]. c #617687",
"[. c #627D86",
"{. c #627B89",
"}. c #697F8E",
"|. c #64768E",
" X c #647D93",
".X c #4F848A",
"XX c #54838C",
"oX c #5E858B",
"OX c #4F8A9A",
"+X c #5D8A92",
"@X c #5D8493",
"#X c #62838E",
"$X c #608283",
"%X c #638593",
"&X c #6B8694",
"*X c #648B94",
"=X c #6B8C94",
"-X c #658A99",
";X c #6B8E9A",
":X c #6C9499",
">X c #629296",
",X c #749194",
"<X c #71939D",
"1X c #7B919E",
"2X c #7299A0",
"3X c #7195A3",
"4X c #84A9AF",
"5X c #81ADB6",
/* pixels */
"3 X.0 /.7   3 ^ @._ k { L.:XJ ` ! I k ;.^.>.*.k 6.b.&.-.@X*.",
"Z.b.M ,XM k f.' r.V.1.f.( ^ (  .i G.0./ ].v.J.' B Y M %.2.> ",
"*X1.d p.I j.9.d.L.E._.*XG.o }.3XQ C <.! [.!.S.$.  + g 3 j <.",
"( 9 I w - 0..XD.~.B.V.^.c.1 Y. XL._ o 2.>XC._.W.. x.b.g [ A.",
"u ~ f.k o I e.).c.#.0 B 2 1 4.D.*Xi.= m.+XD.{.D.b E.7.q | / ",
", i.^.Q 4 u ` @.G I B *.i.k j z./.*X,.m B j.&.J & G.T.j p.b.",
"1 p.r.f.! 3 ; m i G T.^.B.&X' 2 ^ n.oXF.< C < * o 5 h M v.f.",
"n | b.-.W.2.O 5.n.~ ! /.XX).' 1 C L ' I 1.Z.+.  V.I o Q D.4.",
"' d i.L._.d.f F.+XA.o R /.| y ;.h.-.1.m {.!.-.a S H   1 l.0.",
"> + + %.^ w <.W #Xf.m L o 1 d.J.!.7.G.j { $XA L &.C *.U j V ",
"=., L b.].Y { :.H # l M.O 2.Q.B.t.P.O.G o g + u.&X>. .c.l 4.",
"~.Q Z.L.!.v.n 8.-.f.1.@.1 M <.g C { T 1 B g.&.) * & o.K y j.",
"!.( n.`.-X/.1 ^ -.B.B.Z./.~ T 1.n r i f.*X-X_.j.@   4   o V.",
"^.Y I ~ f z h U $ i.z.e.).] k.OXA.B ~.+XW.W.z.f.l [ z.M | oX",
"n.T o ~ w , L k M -.0.C.| b j G.5X0.8.2X_.J.k.! ( Z.| e g./.",
"A.C _ &XC.X.x.0 m =.f./ =.[.#.; P k   j J.V.( [ ;.Z.| E J.-X",
";.j X.j./.G u W l 4 D c S.I.[ v.=.    6 p.m i F j K.Q N <X&X",
"c -.b.8.f., * N.oX! y o U o.b k.' #.X.U 3.f.r %.X.w X.} Z j ",
"f.{.v.Z.! e %.I 0.v.@.c.f.v.Y 1 0.%XE.8.j L I ^.n.1 i.,XL 4 ",
"g J @.Z 1 h.D.B   Q ^ i.2.1.q S S.B.-X%Xy 1 [ oXXXw j [ t O ",
"p.i @.n.M ;.L.X.& ( =.  , M 9 r h.[.i.i ( j.( oX:XF Q v p &.",
"<X] V.oXG G Y 5 + a.<.3 ! 1.0.*./ L 5 + &.H.@.| X.* M.L.V.Z.",
"Y.0 ^ 4X=.  d i.S   - A.!.j.f.c.9.r g.N.` b.C.( & o I #X^.Y.",
"3 @ + Z.C M Y.'.S.f [ %Xj.=.f.y.[.8./ Z.> C v.q.T g < ! ..( ",
"I f.0.j   X.C.|.<Xx ^ ;XW.8.4.8.C.z.U   { X.B #.7.^.}.[ o w ",
"j.B.C.[.g.g j.} E g 0 f.2.~ 8 n U | V & ! =XI y X.| f.G.n b.",
"^.(.R.W.=XU -  .V.z i ~ m -   o * 5 o ` | j : * V V { C i b.",
"0.#X(.L.C.G s I.0.M j.j.v.<.X & A V o < 4.=.I m.n.Z.[.g.o 5 ",
"  f.1XV.! o * U.! z Y.L.L.#Xz *.Z.z.L o & | *.z.B.B.S.i.&   ",
". h I % o     r y   Z.;X).-X=.B.s.e o . 5 G = 0 1.0.w.b a.u "
};
